<svg xmlns="http://www.w3.org/2000/svg" viewBox="-32 -32 576 576" width="576" height="576">
  <rect x="-32" y="-32" width="576" height="576" rx="96" ry="96" fill="#1C1917"/>

  <g fill="#ffffff">
    <path d="M482.133,362.521h-19.93V163.675c5.587-0.524,9.96-5.223,9.96-10.947V54.821c0-6.075-4.925-11-11-11h-57.356c-6.075,0-11,4.925-11,11s4.925,11,11,11h46.356v75.906H22V65.821h50.203c6.075,0,11-4.925,11-11s-4.925-11-11-11H11c-6.075,0-11,4.925-11,11v97.906c0,5.724,4.373,10.422,9.959,10.947v293.503c0,6.075,4.925,11,11,11H245v13.955C245,498.602,258.398,512,274.867,512h33.973c16.469,0,29.867-13.398,29.867-29.867v-13.955h79.586v13.955c0,16.469,13.398,29.867,29.867,29.867h33.973C498.602,512,512,498.602,512,482.133v-89.745C512,375.919,498.602,362.521,482.133,362.521z M31.959,446.178V163.728h408.244v199.878c-12.617,3.493-21.91,15.069-21.91,28.783v13.953h-79.586v-13.953c0-16.469-13.398-29.867-29.867-29.867h-33.973c-16.469,0-29.867,13.398-29.867,29.867v53.79H31.959z M316.707,482.133c0,4.338-3.529,7.867-7.867,7.867h-33.973c-4.338,0-7.867-3.529-7.867-7.867v-89.745c0-4.338,3.529-7.867,7.867-7.867h33.973c4.338,0,7.867,3.529,7.867,7.867V482.133z M338.707,446.178v-17.837h79.586v17.837H338.707z M490,482.133c0,4.338-3.529,7.867-7.867,7.867H448.16c-4.338,0-7.867-3.529-7.867-7.867v-89.745c0-4.338,3.529-7.867,7.867-7.867h33.973c4.338,0,7.867,3.529,7.867,7.867V482.133z"/>
    <path d="M212.014,65.821h-92.579c-6.075,0-11-4.925-11-11s4.925-11,11-11h92.579c6.075,0,11,4.925,11,11S218.089,65.821,212.014,65.821z"/>
    <path d="M352.789,65.821h-90.386c-6.075,0-11-4.925-11-11s4.925-11,11-11h90.386c6.075,0,11,4.925,11,11S358.864,65.821,352.789,65.821z"/>
    <path d="M84.699,257.772c-17.049,0-30.919-13.87-30.919-30.919c0-17.048,13.87-30.918,30.919-30.918s30.919,13.87,30.919,30.918C115.618,243.901,101.748,257.772,84.699,257.772z M84.699,217.934c-4.918,0-8.919,4.001-8.919,8.918c0,4.918,4.001,8.919,8.919,8.919c4.918,0,8.919-4.001,8.919-8.919C93.618,221.935,89.617,217.934,84.699,217.934z"/>
  </g>

  <g fill="#FF6A00">
    <path d="M236.081,109.642c-18.146,0-32.91-14.763-32.91-32.91V32.911C203.171,14.764,217.935,0,236.081,0c18.147,0,32.911,14.764,32.911,32.911v43.821C268.992,94.879,254.229,109.642,236.081,109.642z M236.081,22c-6.016,0-10.91,4.895-10.91,10.911v43.821c0,6.016,4.895,10.91,10.91,10.91c6.017,0,10.911-4.894,10.911-10.91V32.911C246.992,26.895,242.098,22,236.081,22z"/>
    <path d="M94.123,109.642c-18.147,0-32.911-14.763-32.911-32.91V32.911C61.212,14.764,75.976,0,94.123,0c18.146,0,32.91,14.764,32.91,32.911v43.821C127.033,94.879,112.27,109.642,94.123,109.642z M94.123,22c-6.017,0-10.911,4.895-10.911,10.911v43.821c0,6.016,4.895,10.91,10.911,10.91c6.016,0,10.91-4.894,10.91-10.91V32.911C105.033,26.895,100.139,22,94.123,22z"/>
    <path d="M378.04,109.642c-18.147,0-32.911-14.763-32.911-32.91V32.911C345.129,14.764,359.893,0,378.04,0c18.146,0,32.91,14.764,32.91,32.911v43.821C410.95,94.879,396.186,109.642,378.04,109.642z M378.04,22c-6.017,0-10.911,4.895-10.911,10.911v43.821c0,6.016,4.895,10.91,10.911,10.91c6.016,0,10.91-4.894,10.91-10.91V32.911C388.95,26.895,384.056,22,378.04,22z"/>
  </g>

  <g fill="#FF6A00">
    <path id="c0" d="M180.951,256.984c-3.791,0-7.314-1.952-9.325-5.165l-12.857-20.547c-3.223-5.15-1.66-11.937,3.49-15.16c5.152-3.224,11.936-1.66,15.16,3.49l3.532,5.645l14.617-23.36c3.223-5.149,10.008-6.713,15.16-3.49c5.15,3.222,6.713,10.01,3.49,15.16l-23.942,38.263C188.266,255.032,184.742,256.984,180.951,256.984z"/>
    <path id="c1" d="M280.407,256.984c-3.791,0-7.314-1.952-9.325-5.165l-12.857-20.547c-3.223-5.15-1.66-11.937,3.49-15.16c5.149-3.224,11.937-1.66,15.16,3.49l3.532,5.645l14.617-23.36c3.224-5.149,10.009-6.713,15.16-3.49c5.15,3.222,6.713,10.01,3.49,15.16l-23.942,38.263C287.722,255.032,284.198,256.984,280.407,256.984z"/>
    <path id="c2" d="M379.864,256.984c-3.791,0-7.314-1.952-9.325-5.165l-12.857-20.547c-3.223-5.15-1.66-11.937,3.49-15.16c5.148-3.224,11.936-1.66,15.16,3.49l3.532,5.645l14.617-23.36c3.223-5.149,10.008-6.713,15.16-3.49c5.15,3.222,6.713,10.01,3.49,15.16l-23.942,38.263C387.179,255.032,383.655,256.984,379.864,256.984z"/>
    <path id="c3" d="M81.494,335.084c-3.791,0-7.314-1.952-9.325-5.165l-12.857-20.547c-3.223-5.15-1.66-11.937,3.49-15.16c5.151-3.224,11.938-1.66,15.16,3.49l3.532,5.645l14.617-23.36c3.224-5.15,10.009-6.713,15.16-3.49c5.15,3.222,6.713,10.01,3.49,15.16l-23.942,38.263C88.809,333.132,85.285,335.084,81.494,335.084z"/>
    <path id="c4" d="M180.951,335.084c-3.791,0-7.314-1.952-9.325-5.165l-12.857-20.547c-3.223-5.15-1.66-11.937,3.49-15.16c5.152-3.224,11.936-1.66,15.16,3.49l3.532,5.645l14.617-23.36c3.223-5.15,10.008-6.713,15.16-3.49c5.15,3.222,6.713,10.01,3.49,15.16l-23.942,38.263C188.266,333.132,184.742,335.084,180.951,335.084z"/>
    <path id="c5" d="M280.407,335.084c-3.791,0-7.314-1.952-9.325-5.165l-12.857-20.547c-3.223-5.15-1.66-11.937,3.49-15.16c5.149-3.224,11.937-1.66,15.16,3.49l3.532,5.645l14.617-23.36c3.224-5.15,10.009-6.713,15.16-3.49c5.15,3.222,6.713,10.01,3.49,15.16l-23.942,38.263C287.722,333.132,284.198,335.084,280.407,335.084z"/>
    <path id="c6" d="M379.864,335.084c-3.791,0-7.314-1.952-9.325-5.165l-12.857-20.547c-3.223-5.15-1.66-11.937,3.49-15.16c5.148-3.224,11.936-1.66,15.16,3.49l3.532,5.645l14.617-23.36c3.223-5.15,10.008-6.713,15.16-3.49c5.15,3.222,6.713,10.01,3.49,15.16l-23.942,38.263C387.179,333.132,383.655,335.084,379.864,335.084z"/>
    <path id="c7" d="M81.494,413.184c-3.791,0-7.314-1.952-9.325-5.165l-12.857-20.547c-3.223-5.15-1.66-11.937,3.49-15.16c5.151-3.225,11.938-1.66,15.16,3.49l3.532,5.645l14.617-23.36c3.224-5.15,10.009-6.713,15.16-3.49c5.15,3.222,6.713,10.01,3.49,15.16l-23.942,38.263C88.809,411.232,85.285,413.184,81.494,413.184z"/>
    <path id="c8" d="M180.951,413.184c-3.791,0-7.314-1.952-9.325-5.165l-12.857-20.547c-3.223-5.15-1.66-11.937,3.49-15.16c5.152-3.225,11.936-1.66,15.16,3.49l3.532,5.645l14.617-23.36c3.223-5.15,10.008-6.713,15.16-3.49c5.15,3.222,6.713,10.01,3.49,15.16l-23.942,38.263C188.266,411.232,184.742,413.184,180.951,413.184z"/>
  </g>
</svg>
